<svg width="160" height="47" viewBox="0 0 160 47" fill="none" xmlns="http://www.w3.org/2000/svg">
<circle cx="23" cy="23.9688" r="9" stroke="#CDCDCD" stroke-width="2"/>
<circle cx="23" cy="19.9688" r="1" fill="#CDCDCD"/>
<path d="M23 22.9688V28.9688" stroke="#CDCDCD" stroke-width="2" stroke-linecap="round"/>
<path d="M59.4091 30.4688V18.8324H60.8182V29.2188H66.2273V30.4688H59.4091ZM71.8864 30.6506C71.0455 30.6506 70.3201 30.465 69.7102 30.0938C69.1042 29.7188 68.6364 29.196 68.3068 28.5256C67.9811 27.8513 67.8182 27.0672 67.8182 26.1733C67.8182 25.2794 67.9811 24.4915 68.3068 23.8097C68.6364 23.1241 69.0947 22.59 69.6818 22.2074C70.2727 21.821 70.9621 21.6278 71.75 21.6278C72.2045 21.6278 72.6534 21.7036 73.0966 21.8551C73.5398 22.0066 73.9432 22.2528 74.3068 22.5938C74.6705 22.9309 74.9602 23.3778 75.1761 23.9347C75.392 24.4915 75.5 25.1771 75.5 25.9915V26.5597H68.7727V25.4006H74.1364C74.1364 24.9081 74.0379 24.4687 73.8409 24.0824C73.6477 23.696 73.3712 23.3911 73.0114 23.1676C72.6553 22.9441 72.2348 22.8324 71.75 22.8324C71.2159 22.8324 70.7538 22.965 70.3636 23.2301C69.9773 23.4915 69.6799 23.8324 69.4716 24.2528C69.2633 24.6733 69.1591 25.1241 69.1591 25.6051V26.3778C69.1591 27.0369 69.2727 27.5956 69.5 28.054C69.7311 28.5085 70.0511 28.8551 70.4602 29.0938C70.8693 29.3286 71.3447 29.446 71.8864 29.446C72.2386 29.446 72.5568 29.3968 72.8409 29.2983C73.1288 29.196 73.3769 29.0445 73.5852 28.8438C73.7936 28.6392 73.9545 28.3854 74.0682 28.0824L75.3636 28.446C75.2273 28.8854 74.9981 29.2718 74.6761 29.6051C74.3542 29.9347 73.9564 30.1922 73.483 30.3778C73.0095 30.5597 72.4773 30.6506 71.8864 30.6506ZM81.0625 33.9233C80.4148 33.9233 79.858 33.84 79.392 33.6733C78.9261 33.5104 78.5379 33.2945 78.2273 33.0256C77.9205 32.7604 77.6761 32.4763 77.4943 32.1733L78.5625 31.4233C78.6837 31.5824 78.8371 31.7642 79.0227 31.9688C79.2083 32.1771 79.4621 32.357 79.7841 32.5085C80.1098 32.6638 80.536 32.7415 81.0625 32.7415C81.767 32.7415 82.3485 32.571 82.8068 32.2301C83.2652 31.8892 83.4943 31.3551 83.4943 30.6278V28.8551H83.3807C83.2822 29.0142 83.142 29.2112 82.9602 29.446C82.7822 29.6771 82.5246 29.8835 82.1875 30.0653C81.8542 30.2434 81.4034 30.3324 80.8352 30.3324C80.1307 30.3324 79.4981 30.1657 78.9375 29.8324C78.3807 29.4991 77.9394 29.0142 77.6136 28.3778C77.2917 27.7415 77.1307 26.9687 77.1307 26.0597C77.1307 25.1657 77.2879 24.3873 77.6023 23.7244C77.9167 23.0578 78.3542 22.5426 78.9148 22.179C79.4754 21.8116 80.1231 21.6278 80.858 21.6278C81.4261 21.6278 81.8769 21.7225 82.2102 21.9119C82.5473 22.0975 82.8049 22.3097 82.983 22.5483C83.1648 22.7831 83.3049 22.9763 83.4034 23.1278H83.5398V21.7415H84.8352V30.7188C84.8352 31.4688 84.6648 32.0786 84.3239 32.5483C83.9867 33.0218 83.5322 33.3684 82.9602 33.5881C82.392 33.8116 81.7595 33.9233 81.0625 33.9233ZM81.017 29.1278C81.5549 29.1278 82.0095 29.0047 82.3807 28.7585C82.7519 28.5123 83.0341 28.1581 83.2273 27.696C83.4205 27.2339 83.517 26.6809 83.517 26.0369C83.517 25.4081 83.4223 24.8532 83.233 24.3722C83.0436 23.8911 82.7633 23.5142 82.392 23.2415C82.0208 22.9687 81.5625 22.8324 81.017 22.8324C80.4489 22.8324 79.9754 22.9763 79.5966 23.2642C79.2216 23.5521 78.9394 23.9384 78.75 24.4233C78.5644 24.9081 78.4716 25.446 78.4716 26.0369C78.4716 26.643 78.5663 27.179 78.7557 27.6449C78.9489 28.107 79.233 28.4706 79.608 28.7358C79.9867 28.9972 80.4564 29.1278 81.017 29.1278ZM89.858 30.6733C89.3049 30.6733 88.803 30.5691 88.3523 30.3608C87.9015 30.1487 87.5436 29.8438 87.2784 29.446C87.0133 29.0445 86.8807 28.5597 86.8807 27.9915C86.8807 27.4915 86.9792 27.0862 87.1761 26.7756C87.3731 26.4612 87.6364 26.215 87.9659 26.0369C88.2955 25.8589 88.6591 25.7263 89.0568 25.6392C89.4583 25.5483 89.8617 25.4763 90.267 25.4233C90.7973 25.3551 91.2273 25.304 91.5568 25.2699C91.8902 25.232 92.1326 25.1695 92.2841 25.0824C92.4394 24.9953 92.517 24.8437 92.517 24.6278V24.5824C92.517 24.0218 92.3636 23.5862 92.0568 23.2756C91.7538 22.965 91.2936 22.8097 90.6761 22.8097C90.036 22.8097 89.5341 22.9498 89.1705 23.2301C88.8068 23.5104 88.5511 23.8097 88.4034 24.1278L87.1307 23.6733C87.358 23.143 87.661 22.7301 88.0398 22.4347C88.4223 22.1354 88.839 21.9271 89.2898 21.8097C89.7443 21.6884 90.1913 21.6278 90.6307 21.6278C90.911 21.6278 91.233 21.6619 91.5966 21.7301C91.964 21.7945 92.3182 21.929 92.6591 22.1335C93.0038 22.3381 93.2898 22.6468 93.517 23.0597C93.7443 23.4725 93.858 24.0256 93.858 24.7188V30.4688H92.517V29.2869H92.4489C92.358 29.4763 92.2064 29.679 91.9943 29.8949C91.7822 30.1108 91.5 30.2945 91.1477 30.446C90.7955 30.5975 90.3655 30.6733 89.858 30.6733ZM90.0625 29.4688C90.5928 29.4688 91.0398 29.3646 91.4034 29.1562C91.7708 28.9479 92.0473 28.679 92.233 28.3494C92.4223 28.0199 92.517 27.6733 92.517 27.3097V26.0824C92.4602 26.1506 92.3352 26.2131 92.142 26.2699C91.9527 26.3229 91.733 26.3703 91.483 26.4119C91.2367 26.4498 90.9962 26.4839 90.7614 26.5142C90.5303 26.5407 90.3428 26.5634 90.1989 26.5824C89.8504 26.6278 89.5246 26.7017 89.2216 26.804C88.9223 26.9025 88.6799 27.0521 88.4943 27.2528C88.3125 27.4498 88.2216 27.7187 88.2216 28.0597C88.2216 28.5256 88.3939 28.8778 88.7386 29.1165C89.0871 29.3513 89.5284 29.4688 90.0625 29.4688ZM97.6463 18.8324V30.4688H96.3054V18.8324H97.6463ZM105.943 25.2188V30.4688H104.602V21.7415H105.898V23.1051H106.011C106.216 22.6619 106.527 22.3059 106.943 22.0369C107.36 21.7642 107.898 21.6278 108.557 21.6278C109.148 21.6278 109.665 21.7491 110.108 21.9915C110.551 22.2301 110.896 22.5938 111.142 23.0824C111.388 23.5672 111.511 24.1809 111.511 24.9233V30.4688H110.17V25.0142C110.17 24.3286 109.992 23.7945 109.636 23.4119C109.28 23.0256 108.792 22.8324 108.17 22.8324C107.742 22.8324 107.36 22.9252 107.023 23.1108C106.689 23.2964 106.426 23.5672 106.233 23.9233C106.04 24.2794 105.943 24.7112 105.943 25.2188ZM117.507 30.6506C116.719 30.6506 116.028 30.4631 115.433 30.0881C114.842 29.7131 114.38 29.1884 114.047 28.5142C113.717 27.84 113.553 27.0521 113.553 26.1506C113.553 25.2415 113.717 24.4479 114.047 23.7699C114.38 23.0919 114.842 22.5653 115.433 22.1903C116.028 21.8153 116.719 21.6278 117.507 21.6278C118.295 21.6278 118.984 21.8153 119.575 22.1903C120.17 22.5653 120.632 23.0919 120.962 23.7699C121.295 24.4479 121.462 25.2415 121.462 26.1506C121.462 27.0521 121.295 27.84 120.962 28.5142C120.632 29.1884 120.17 29.7131 119.575 30.0881C118.984 30.4631 118.295 30.6506 117.507 30.6506ZM117.507 29.446C118.106 29.446 118.598 29.2926 118.984 28.9858C119.371 28.679 119.657 28.2756 119.842 27.7756C120.028 27.2756 120.121 26.7339 120.121 26.1506C120.121 25.5672 120.028 25.0237 119.842 24.5199C119.657 24.0161 119.371 23.6089 118.984 23.2983C118.598 22.9877 118.106 22.8324 117.507 22.8324C116.909 22.8324 116.416 22.9877 116.03 23.2983C115.643 23.6089 115.357 24.0161 115.172 24.5199C114.986 25.0237 114.893 25.5672 114.893 26.1506C114.893 26.7339 114.986 27.2756 115.172 27.7756C115.357 28.2756 115.643 28.679 116.03 28.9858C116.416 29.2926 116.909 29.446 117.507 29.446ZM127.304 21.7415V22.8778H122.781V21.7415H127.304ZM124.099 19.6506H125.44V27.9688C125.44 28.3475 125.495 28.6316 125.605 28.821C125.719 29.0066 125.863 29.1316 126.037 29.196C126.215 29.2566 126.402 29.2869 126.599 29.2869C126.747 29.2869 126.868 29.2794 126.963 29.2642C127.058 29.2453 127.134 29.2301 127.19 29.2188L127.463 30.4233C127.372 30.4574 127.245 30.4915 127.082 30.5256C126.92 30.5634 126.713 30.5824 126.463 30.5824C126.084 30.5824 125.713 30.5009 125.349 30.3381C124.99 30.1752 124.69 29.9271 124.452 29.5938C124.217 29.2604 124.099 28.84 124.099 28.3324V19.6506ZM129.321 30.4688V21.7415H130.662V30.4688H129.321ZM130.003 20.2869C129.741 20.2869 129.516 20.1979 129.327 20.0199C129.141 19.8419 129.048 19.6278 129.048 19.3778C129.048 19.1278 129.141 18.9138 129.327 18.7358C129.516 18.5578 129.741 18.4688 130.003 18.4688C130.264 18.4688 130.488 18.5578 130.673 18.7358C130.863 18.9138 130.957 19.1278 130.957 19.3778C130.957 19.6278 130.863 19.8419 130.673 20.0199C130.488 20.1979 130.264 20.2869 130.003 20.2869ZM136.663 30.6506C135.845 30.6506 135.141 30.4574 134.55 30.071C133.959 29.6847 133.504 29.1525 133.186 28.4744C132.868 27.7964 132.709 27.0218 132.709 26.1506C132.709 25.2642 132.872 24.482 133.197 23.804C133.527 23.1222 133.985 22.59 134.572 22.2074C135.163 21.821 135.853 21.6278 136.641 21.6278C137.254 21.6278 137.807 21.7415 138.3 21.9688C138.792 22.196 139.196 22.5142 139.51 22.9233C139.824 23.3324 140.019 23.8097 140.095 24.3551H138.754C138.652 23.9574 138.425 23.6051 138.072 23.2983C137.724 22.9877 137.254 22.8324 136.663 22.8324C136.141 22.8324 135.682 22.9687 135.288 23.2415C134.898 23.5104 134.593 23.8911 134.374 24.3835C134.158 24.8722 134.05 25.446 134.05 26.1051C134.05 26.7794 134.156 27.3665 134.368 27.8665C134.584 28.3665 134.887 28.7547 135.277 29.0312C135.671 29.3078 136.133 29.446 136.663 29.446C137.012 29.446 137.328 29.3854 137.612 29.2642C137.896 29.143 138.137 28.9688 138.334 28.7415C138.531 28.5142 138.671 28.2415 138.754 27.9233H140.095C140.019 28.4384 139.832 28.9025 139.533 29.3153C139.237 29.7244 138.845 30.0502 138.357 30.2926C137.872 30.5312 137.307 30.6506 136.663 30.6506ZM145.714 30.6506C144.874 30.6506 144.148 30.465 143.538 30.0938C142.932 29.7188 142.464 29.196 142.135 28.5256C141.809 27.8513 141.646 27.0672 141.646 26.1733C141.646 25.2794 141.809 24.4915 142.135 23.8097C142.464 23.1241 142.923 22.59 143.51 22.2074C144.101 21.821 144.79 21.6278 145.578 21.6278C146.033 21.6278 146.482 21.7036 146.925 21.8551C147.368 22.0066 147.771 22.2528 148.135 22.5938C148.499 22.9309 148.788 23.3778 149.004 23.9347C149.22 24.4915 149.328 25.1771 149.328 25.9915V26.5597H142.601V25.4006H147.964C147.964 24.9081 147.866 24.4687 147.669 24.0824C147.476 23.696 147.199 23.3911 146.839 23.1676C146.483 22.9441 146.063 22.8324 145.578 22.8324C145.044 22.8324 144.582 22.965 144.192 23.2301C143.805 23.4915 143.508 23.8324 143.3 24.2528C143.091 24.6733 142.987 25.1241 142.987 25.6051V26.3778C142.987 27.0369 143.101 27.5956 143.328 28.054C143.559 28.5085 143.879 28.8551 144.288 29.0938C144.697 29.3286 145.173 29.446 145.714 29.446C146.067 29.446 146.385 29.3968 146.669 29.2983C146.957 29.196 147.205 29.0445 147.413 28.8438C147.622 28.6392 147.783 28.3854 147.896 28.0824L149.192 28.446C149.055 28.8854 148.826 29.2718 148.504 29.6051C148.182 29.9347 147.785 30.1922 147.311 30.3778C146.838 30.5597 146.305 30.6506 145.714 30.6506Z" fill="#CDCDCD"/>
</svg>
